<svg width="129" height="136" viewBox="0 0 129 136" fill="none" xmlns="http://www.w3.org/2000/svg">
<path d="M58.4059 41.2781V37.0746C58.4059 35.9478 57.9583 34.8672 57.1616 34.0705C56.3649 33.2738 55.2843 32.8262 54.1576 32.8262H33.3036C32.1772 32.8267 31.0971 33.2745 30.3007 34.0711C29.5044 34.8678 29.057 35.9481 29.057 37.0746V91.7515C29.057 92.8782 29.5046 93.9588 30.3013 94.7555C31.0981 95.5522 32.1786 95.9998 33.3054 95.9998H105.22C106.347 95.9998 107.428 95.5522 108.224 94.7555C109.021 93.9588 109.469 92.8782 109.469 91.7515V49.7765C109.469 48.6498 109.021 47.5692 108.224 46.7725C107.428 45.9757 106.347 45.5282 105.22 45.5282H62.6508C61.5244 45.5272 60.4444 45.079 59.6484 44.282C58.8524 43.485 58.4055 42.4045 58.4059 41.2781V41.2781Z" fill="#9DA9B3"/>
<path d="M106.739 0.00104364L58.1767 0.0942761C57.8759 0.0948535 57.6325 0.339154 57.6331 0.639936L57.7515 62.2899C57.7521 62.5907 57.9964 62.834 58.2971 62.8335L106.859 62.7402C107.16 62.7396 107.403 62.4954 107.403 62.1946L107.284 0.544612C107.284 0.24383 107.039 0.000466182 106.739 0.00104364Z" fill="#F4F5F6"/>
<path d="M100.93 21.1003L68.446 21.1627L68.4479 22.1365L100.932 22.0741L100.93 21.1003Z" fill="#9DA9B3"/>
<path d="M100.938 25.5025L62.7704 25.5758L62.772 26.3772L100.94 26.3039L100.938 25.5025Z" fill="#9DA9B3"/>
<path d="M100.946 30.3131L62.7779 30.3863L62.7794 31.1877L100.947 31.1145L100.946 30.3131Z" fill="#9DA9B3"/>
<path d="M100.958 35.5689L62.7899 35.6422L62.7914 36.4436L100.959 36.3703L100.958 35.5689Z" fill="#9DA9B3"/>
<path d="M86.8233 40.8939L62.7999 40.9401L62.8015 41.7415L86.8248 41.6953L86.8233 40.8939Z" fill="#9DA9B3"/>
<path d="M100.985 49.8902L62.8173 49.9635L62.8188 50.7649L100.987 50.6916L100.985 49.8902Z" fill="#24DB57"/>
<path d="M100.994 54.7008L62.8265 54.774L62.828 55.5754L100.996 55.5022L100.994 54.7008Z" fill="#24DB57"/>
<path d="M101.004 59.9576L62.8367 60.0309L62.8382 60.8323L101.006 60.759L101.004 59.9576Z" fill="#24DB57"/>
<path d="M102.033 4.95302L62.5035 5.02892L62.5274 17.4465L102.057 17.3706L102.033 4.95302Z" fill="#FAD7B8"/>
<path d="M100.6 37.1507L88.7344 37.1735L88.7566 48.7517L100.623 48.7289L100.6 37.1507Z" fill="white"/>
<path d="M54.3489 41.2781V37.0746C54.3489 35.9478 53.9013 34.8672 53.1046 34.0705C52.3079 33.2738 51.2273 32.8262 50.1005 32.8262H29.2466C28.1202 32.8267 27.04 33.2745 26.2437 34.0711C25.4474 34.8678 25 35.9481 25 37.0746V91.7515C25 92.8782 25.4476 93.9588 26.2443 94.7555C27.041 95.5522 28.1216 95.9998 29.2483 95.9998H101.163C102.29 95.9998 103.371 95.5522 104.167 94.7555C104.964 93.9588 105.412 92.8782 105.412 91.7515V49.7765C105.412 48.6498 104.964 47.5692 104.167 46.7725C103.371 45.9757 102.29 45.5282 101.163 45.5282H58.5938C57.4673 45.5272 56.3874 45.079 55.5914 44.282C54.7953 43.485 54.3484 42.4045 54.3489 41.2781Z" fill="#D7DCE0"/>
<path d="M10.7868 118.364H8.6902V126.295H8.58792L3.11065 118.364H1.22429V130H3.33224V122.074H3.42883L8.91179 130H10.7868V118.364ZM16.9996 130.17C19.5564 130.17 21.1814 128.369 21.1814 125.67C21.1814 122.966 19.5564 121.159 16.9996 121.159C14.4428 121.159 12.8178 122.966 12.8178 125.67C12.8178 128.369 14.4428 130.17 16.9996 130.17ZM17.0109 128.523C15.5962 128.523 14.903 127.261 14.903 125.665C14.903 124.068 15.5962 122.79 17.0109 122.79C18.403 122.79 19.0962 124.068 19.0962 125.665C19.0962 127.261 18.403 128.523 17.0109 128.523ZM26.8754 120.131H30.472V130H32.5629V120.131H36.1595V118.364H26.8754V120.131ZM37.1521 130H39.2089V124.869C39.2089 123.761 40.0442 122.977 41.1749 122.977C41.5214 122.977 41.9533 123.04 42.1294 123.097V121.205C41.9419 121.17 41.618 121.148 41.3908 121.148C40.3908 121.148 39.5555 121.716 39.2374 122.727H39.1464V121.273H37.1521V130ZM46.0354 130.176C47.4047 130.176 48.2229 129.534 48.5979 128.801H48.666V130H50.6433V124.159C50.6433 121.852 48.7626 121.159 47.0979 121.159C45.2626 121.159 43.8535 121.977 43.399 123.568L45.3195 123.841C45.524 123.244 46.1035 122.733 47.1092 122.733C48.0638 122.733 48.5865 123.222 48.5865 124.08V124.114C48.5865 124.705 47.9672 124.733 46.4274 124.898C44.7342 125.08 43.1149 125.585 43.1149 127.551C43.1149 129.267 44.3706 130.176 46.0354 130.176ZM46.5695 128.665C45.7115 128.665 45.0979 128.273 45.0979 127.517C45.0979 126.727 45.7854 126.398 46.7058 126.267C47.2456 126.193 48.3251 126.057 48.5922 125.841V126.869C48.5922 127.841 47.8081 128.665 46.5695 128.665ZM54.9683 124.886C54.9683 123.625 55.7297 122.898 56.8149 122.898C57.8774 122.898 58.5138 123.597 58.5138 124.761V130H60.5706V124.443C60.5763 122.352 59.3831 121.159 57.582 121.159C56.2751 121.159 55.3774 121.784 54.9797 122.756H54.8774V121.273H52.9115V130H54.9683V124.886ZM69.7592 123.58C69.4751 122.102 68.2933 121.159 66.2479 121.159C64.1456 121.159 62.7138 122.193 62.7195 123.807C62.7138 125.08 63.4979 125.92 65.174 126.267L66.6626 126.58C67.4638 126.756 67.8388 127.08 67.8388 127.574C67.8388 128.17 67.1911 128.619 66.2138 128.619C65.2706 128.619 64.657 128.21 64.4808 127.426L62.4751 127.619C62.7308 129.222 64.0774 130.17 66.2195 130.17C68.4013 130.17 69.9411 129.04 69.9467 127.386C69.9411 126.142 69.1399 125.381 67.4922 125.023L66.0036 124.705C65.1172 124.506 64.7649 124.199 64.7706 123.693C64.7649 123.102 65.4183 122.693 66.2763 122.693C67.2251 122.693 67.7251 123.21 67.8842 123.784L69.7592 123.58ZM74.3541 130.176C75.7234 130.176 76.5416 129.534 76.9166 128.801H76.9848V130H78.9621V124.159C78.9621 121.852 77.0814 121.159 75.4166 121.159C73.5814 121.159 72.1723 121.977 71.7178 123.568L73.6382 123.841C73.8428 123.244 74.4223 122.733 75.428 122.733C76.3825 122.733 76.9053 123.222 76.9053 124.08V124.114C76.9053 124.705 76.2859 124.733 74.7462 124.898C73.053 125.08 71.4337 125.585 71.4337 127.551C71.4337 129.267 72.6893 130.176 74.3541 130.176ZM74.8882 128.665C74.0303 128.665 73.4166 128.273 73.4166 127.517C73.4166 126.727 74.1041 126.398 75.0246 126.267C75.5643 126.193 76.6439 126.057 76.9109 125.841V126.869C76.9109 127.841 76.1268 128.665 74.8882 128.665ZM85.0371 130.17C87.2303 130.17 88.628 128.869 88.7757 127.017H86.8098C86.6337 127.955 85.9575 128.494 85.0541 128.494C83.77 128.494 82.9405 127.42 82.9405 125.636C82.9405 123.875 83.7871 122.818 85.0541 122.818C86.0428 122.818 86.6507 123.455 86.8098 124.295H88.7757C88.6337 122.403 87.1564 121.159 85.0257 121.159C82.4689 121.159 80.8553 123.006 80.8553 125.67C80.8553 128.312 82.4291 130.17 85.0371 130.17ZM95.0226 121.273H93.301V119.182H91.2442V121.273H90.0055V122.864H91.2442V127.716C91.2328 129.358 92.426 130.165 93.9714 130.119C94.5567 130.102 94.9601 129.989 95.1817 129.915L94.8351 128.307C94.7214 128.335 94.4885 128.386 94.2328 128.386C93.7158 128.386 93.301 128.205 93.301 127.375V122.864H95.0226V121.273ZM96.9428 130H98.9996V121.273H96.9428V130ZM97.9768 120.034C98.6303 120.034 99.1643 119.534 99.1643 118.92C99.1643 118.301 98.6303 117.801 97.9768 117.801C97.3178 117.801 96.7837 118.301 96.7837 118.92C96.7837 119.534 97.3178 120.034 97.9768 120.034ZM105.121 130.17C107.678 130.17 109.303 128.369 109.303 125.67C109.303 122.966 107.678 121.159 105.121 121.159C102.565 121.159 100.94 122.966 100.94 125.67C100.94 128.369 102.565 130.17 105.121 130.17ZM105.133 128.523C103.718 128.523 103.025 127.261 103.025 125.665C103.025 124.068 103.718 122.79 105.133 122.79C106.525 122.79 107.218 124.068 107.218 125.665C107.218 127.261 106.525 128.523 105.133 128.523ZM113.306 124.886C113.306 123.625 114.067 122.898 115.152 122.898C116.215 122.898 116.851 123.597 116.851 124.761V130H118.908V124.443C118.914 122.352 117.721 121.159 115.919 121.159C114.613 121.159 113.715 121.784 113.317 122.756H113.215V121.273H111.249V130H113.306V124.886ZM128.097 123.58C127.813 122.102 126.631 121.159 124.585 121.159C122.483 121.159 121.051 122.193 121.057 123.807C121.051 125.08 121.835 125.92 123.512 126.267L125 126.58C125.801 126.756 126.176 127.08 126.176 127.574C126.176 128.17 125.529 128.619 124.551 128.619C123.608 128.619 122.994 128.21 122.818 127.426L120.813 127.619C121.068 129.222 122.415 130.17 124.557 130.17C126.739 130.17 128.279 129.04 128.284 127.386C128.279 126.142 127.477 125.381 125.83 125.023L124.341 124.705C123.455 124.506 123.102 124.199 123.108 123.693C123.102 123.102 123.756 122.693 124.614 122.693C125.563 122.693 126.063 123.21 126.222 123.784L128.097 123.58Z" fill="#2F2E80"/>
</svg>
