<svg width="14" height="14" viewBox="0 0 14 14" fill="none" xmlns="http://www.w3.org/2000/svg">
<path d="M11.0203 10.0777L13.8757 12.9323L12.9323 13.8757L10.0777 11.0203C9.0155 11.8718 7.69434 12.3349 6.33301 12.333C3.02101 12.333 0.333008 9.64501 0.333008 6.33301C0.333008 3.02101 3.02101 0.333008 6.33301 0.333008C9.64501 0.333008 12.333 3.02101 12.333 6.33301C12.3349 7.69434 11.8718 9.0155 11.0203 10.0777ZM9.68301 9.58301C10.5291 8.71293 11.0016 7.54663 10.9997 6.33301C10.9997 3.75434 8.91101 1.66634 6.33301 1.66634C3.75434 1.66634 1.66634 3.75434 1.66634 6.33301C1.66634 8.91101 3.75434 10.9997 6.33301 10.9997C7.54663 11.0016 8.71293 10.5291 9.58301 9.68301L9.68301 9.58301Z" fill="#3A434B"/>
</svg>
